<mxfile modified="2023-07-29T17:48:06.475Z" host="app.diagrams.net" agent="Mozilla/5.0 (Macintosh; Intel Mac OS X 10_15_7) AppleWebKit/537.36 (KHTML, like Gecko) Chrome/115.0.0.0 Safari/537.36" etag="7xXH5OM6nllu5s08kSOn" version="21.6.6" type="github">
  <diagram id="Ht1M8jgEwFfnCIfOTk4-" name="APP">
    <mxGraphModel dx="1468" dy="988" grid="1" gridSize="10" guides="1" tooltips="1" connect="1" arrows="1" fold="1" page="1" pageScale="1" pageWidth="1169" pageHeight="827" math="0" shadow="0">
      <root>
        <mxCell id="0" />
        <mxCell id="1" parent="0" />
        <mxCell id="HQXPhJsqiE53SHZvihWZ-2" value="f" style="swimlane;startSize=0;" vertex="1" parent="1">
          <mxGeometry x="310" y="120" width="710" height="541" as="geometry" />
        </mxCell>
        <mxCell id="HQXPhJsqiE53SHZvihWZ-6" style="edgeStyle=orthogonalEdgeStyle;rounded=0;orthogonalLoop=1;jettySize=auto;html=1;" edge="1" parent="HQXPhJsqiE53SHZvihWZ-2" source="HQXPhJsqiE53SHZvihWZ-11" target="HQXPhJsqiE53SHZvihWZ-5">
          <mxGeometry relative="1" as="geometry">
            <mxPoint x="110" y="268.5" as="sourcePoint" />
          </mxGeometry>
        </mxCell>
        <mxCell id="HQXPhJsqiE53SHZvihWZ-19" style="edgeStyle=orthogonalEdgeStyle;rounded=0;orthogonalLoop=1;jettySize=auto;html=1;" edge="1" parent="HQXPhJsqiE53SHZvihWZ-2" source="HQXPhJsqiE53SHZvihWZ-5" target="HQXPhJsqiE53SHZvihWZ-18">
          <mxGeometry relative="1" as="geometry" />
        </mxCell>
        <mxCell id="HQXPhJsqiE53SHZvihWZ-5" value="" style="outlineConnect=0;dashed=0;verticalLabelPosition=bottom;verticalAlign=top;align=center;html=1;shape=mxgraph.aws3.cognito;fillColor=#AD688B;gradientColor=none;" vertex="1" parent="HQXPhJsqiE53SHZvihWZ-2">
          <mxGeometry x="320" y="221" width="76.5" height="93" as="geometry" />
        </mxCell>
        <mxCell id="HQXPhJsqiE53SHZvihWZ-13" style="edgeStyle=orthogonalEdgeStyle;rounded=0;orthogonalLoop=1;jettySize=auto;html=1;" edge="1" parent="HQXPhJsqiE53SHZvihWZ-2" source="HQXPhJsqiE53SHZvihWZ-8" target="HQXPhJsqiE53SHZvihWZ-11">
          <mxGeometry relative="1" as="geometry" />
        </mxCell>
        <mxCell id="HQXPhJsqiE53SHZvihWZ-25" style="edgeStyle=orthogonalEdgeStyle;rounded=0;orthogonalLoop=1;jettySize=auto;html=1;entryX=0;entryY=0.5;entryDx=0;entryDy=0;entryPerimeter=0;" edge="1" parent="HQXPhJsqiE53SHZvihWZ-2" source="HQXPhJsqiE53SHZvihWZ-8" target="HQXPhJsqiE53SHZvihWZ-24">
          <mxGeometry relative="1" as="geometry">
            <Array as="points">
              <mxPoint x="59" y="93" />
            </Array>
          </mxGeometry>
        </mxCell>
        <mxCell id="HQXPhJsqiE53SHZvihWZ-8" value="" style="sketch=0;points=[[0,0,0],[0.25,0,0],[0.5,0,0],[0.75,0,0],[1,0,0],[0,1,0],[0.25,1,0],[0.5,1,0],[0.75,1,0],[1,1,0],[0,0.25,0],[0,0.5,0],[0,0.75,0],[1,0.25,0],[1,0.5,0],[1,0.75,0]];outlineConnect=0;fontColor=#232F3E;gradientColor=#F54749;gradientDirection=north;fillColor=#C7131F;strokeColor=#ffffff;dashed=0;verticalLabelPosition=bottom;verticalAlign=top;align=center;html=1;fontSize=12;fontStyle=0;aspect=fixed;shape=mxgraph.aws4.resourceIcon;resIcon=mxgraph.aws4.amplify;" vertex="1" parent="HQXPhJsqiE53SHZvihWZ-2">
          <mxGeometry x="20" y="229.5" width="78" height="78" as="geometry" />
        </mxCell>
        <mxCell id="HQXPhJsqiE53SHZvihWZ-11" value="" style="outlineConnect=0;dashed=0;verticalLabelPosition=bottom;verticalAlign=top;align=center;html=1;shape=mxgraph.aws3.api_gateway;fillColor=#D9A741;gradientColor=none;" vertex="1" parent="HQXPhJsqiE53SHZvihWZ-2">
          <mxGeometry x="170" y="221" width="76.5" height="93" as="geometry" />
        </mxCell>
        <mxCell id="HQXPhJsqiE53SHZvihWZ-18" value="" style="strokeWidth=2;html=1;shape=mxgraph.flowchart.database;whiteSpace=wrap;" vertex="1" parent="HQXPhJsqiE53SHZvihWZ-2">
          <mxGeometry x="580" y="237.5" width="60" height="60" as="geometry" />
        </mxCell>
        <mxCell id="HQXPhJsqiE53SHZvihWZ-23" style="edgeStyle=orthogonalEdgeStyle;rounded=0;orthogonalLoop=1;jettySize=auto;html=1;entryX=0.25;entryY=1;entryDx=0;entryDy=0;entryPerimeter=0;" edge="1" parent="HQXPhJsqiE53SHZvihWZ-2" source="HQXPhJsqiE53SHZvihWZ-21" target="HQXPhJsqiE53SHZvihWZ-8">
          <mxGeometry relative="1" as="geometry">
            <Array as="points">
              <mxPoint x="610" y="391" />
              <mxPoint x="40" y="391" />
            </Array>
          </mxGeometry>
        </mxCell>
        <mxCell id="HQXPhJsqiE53SHZvihWZ-21" value="MongoDB" style="text;strokeColor=none;align=center;fillColor=none;html=1;verticalAlign=middle;whiteSpace=wrap;rounded=0;" vertex="1" parent="HQXPhJsqiE53SHZvihWZ-2">
          <mxGeometry x="590" y="260" width="40" height="25.5" as="geometry" />
        </mxCell>
        <mxCell id="HQXPhJsqiE53SHZvihWZ-26" style="edgeStyle=orthogonalEdgeStyle;rounded=0;orthogonalLoop=1;jettySize=auto;html=1;entryX=0.482;entryY=0.246;entryDx=0;entryDy=0;entryPerimeter=0;" edge="1" parent="HQXPhJsqiE53SHZvihWZ-2" source="HQXPhJsqiE53SHZvihWZ-27" target="HQXPhJsqiE53SHZvihWZ-18">
          <mxGeometry relative="1" as="geometry" />
        </mxCell>
        <mxCell id="HQXPhJsqiE53SHZvihWZ-24" value="" style="outlineConnect=0;dashed=0;verticalLabelPosition=bottom;verticalAlign=top;align=center;html=1;shape=mxgraph.aws3.worker;fillColor=#D9A741;gradientColor=none;" vertex="1" parent="HQXPhJsqiE53SHZvihWZ-2">
          <mxGeometry x="246.5" y="61" width="60" height="63" as="geometry" />
        </mxCell>
        <mxCell id="HQXPhJsqiE53SHZvihWZ-27" value="" style="sketch=0;html=1;dashed=0;whitespace=wrap;fillColor=#2875E2;strokeColor=#ffffff;points=[[0.005,0.63,0],[0.1,0.2,0],[0.9,0.2,0],[0.5,0,0],[0.995,0.63,0],[0.72,0.99,0],[0.5,1,0],[0.28,0.99,0]];verticalLabelPosition=bottom;align=center;verticalAlign=top;shape=mxgraph.kubernetes.icon;prIcon=rs" vertex="1" parent="HQXPhJsqiE53SHZvihWZ-2">
          <mxGeometry x="490" y="61" width="50" height="48" as="geometry" />
        </mxCell>
        <mxCell id="HQXPhJsqiE53SHZvihWZ-28" value="" style="edgeStyle=orthogonalEdgeStyle;rounded=0;orthogonalLoop=1;jettySize=auto;html=1;entryX=0.482;entryY=0.246;entryDx=0;entryDy=0;entryPerimeter=0;" edge="1" parent="HQXPhJsqiE53SHZvihWZ-2" source="HQXPhJsqiE53SHZvihWZ-24" target="HQXPhJsqiE53SHZvihWZ-27">
          <mxGeometry relative="1" as="geometry">
            <mxPoint x="617" y="192" as="sourcePoint" />
            <mxPoint x="919" y="351" as="targetPoint" />
          </mxGeometry>
        </mxCell>
        <mxCell id="HQXPhJsqiE53SHZvihWZ-10" style="edgeStyle=orthogonalEdgeStyle;rounded=0;orthogonalLoop=1;jettySize=auto;html=1;" edge="1" parent="1" source="HQXPhJsqiE53SHZvihWZ-3" target="HQXPhJsqiE53SHZvihWZ-8">
          <mxGeometry relative="1" as="geometry" />
        </mxCell>
        <mxCell id="HQXPhJsqiE53SHZvihWZ-3" value="" style="sketch=0;outlineConnect=0;fontColor=#232F3E;gradientColor=none;fillColor=#232F3D;strokeColor=none;dashed=0;verticalLabelPosition=bottom;verticalAlign=top;align=center;html=1;fontSize=12;fontStyle=0;aspect=fixed;pointerEvents=1;shape=mxgraph.aws4.users;" vertex="1" parent="1">
          <mxGeometry x="110" y="326.5" width="80" height="80" as="geometry" />
        </mxCell>
      </root>
    </mxGraphModel>
  </diagram>
</mxfile>
